<svg width="100" height="20" viewBox="0 0 100 20" fill="none" xmlns="http://www.w3.org/2000/svg">
<g clip-path="url(#clip0_0_98)">
<g clip-path="url(#clip1_0_98)">
<path d="M8.99103 5.62655H6.21076V4.10188C6.21076 3.62356 6.05381 3.25734 5.73991 3.00323C5.44096 2.73417 5.0299 2.59964 4.50673 2.59964C3.49028 2.59964 2.98206 3.05555 2.98206 3.96735V4.79695C2.98206 5.45465 3.27354 5.97782 3.8565 6.36646C4.08072 6.53088 4.59641 6.81489 5.40359 7.21848C6.10613 7.59217 6.63677 7.89112 6.99552 8.11534C7.35426 8.33955 7.72795 8.63851 8.11659 9.0122C8.52018 9.38589 8.79671 9.80442 8.94619 10.2678C9.11061 10.7162 9.19283 11.2618 9.19283 11.9046V12.9808C9.19283 14.3859 8.78176 15.4546 7.95964 16.1871C7.15247 16.9046 6.06876 17.2633 4.70852 17.2633C3.31839 17.2633 2.18984 16.9046 1.32287 16.1871C0.470853 15.4546 0.0448437 14.4158 0.0448437 13.0705V11.5907H2.82511V13.0032C2.82511 13.5413 2.98954 13.9599 3.31839 14.2588C3.66218 14.5428 4.13303 14.6774 4.73094 14.6624C5.85202 14.6624 6.41256 14.1691 6.41256 13.1826V12.1961C6.41256 11.927 6.37519 11.6878 6.30045 11.4786C6.23928 11.2974 6.15647 11.1242 6.05381 10.9629C5.96413 10.8134 5.78475 10.649 5.5157 10.4696C5.24664 10.2902 5.02242 10.1557 4.84305 10.066C4.67863 9.97632 4.36472 9.8119 3.90135 9.57274C3.21375 9.21399 2.68311 8.91504 2.30942 8.67587C1.91073 8.41794 1.53559 8.12532 1.18834 7.80143C0.829597 7.44269 0.575486 7.04658 0.42601 6.61309C0.276533 6.17961 0.201794 5.66392 0.201794 5.06601V4.19157C0.201794 2.90607 0.597908 1.88963 1.39014 1.14224C2.19731 0.379911 3.26607 -0.00125504 4.59641 -0.00125504C5.92676 -0.00125504 6.98804 0.372437 7.78027 1.11982C8.58744 1.85226 8.99103 2.85375 8.99103 4.12431V5.62655ZM16.6848 0.22296H19.465V12.7566C19.465 14.1019 19.039 15.1856 18.187 16.0077C17.335 16.8298 16.2289 17.2409 14.8686 17.2409C13.5084 17.2409 12.4022 16.8298 11.5502 16.0077C10.6982 15.1856 10.2722 14.1019 10.2722 12.7566V0.22296H13.0525V12.7342C13.0525 13.3171 13.2169 13.788 13.5457 14.1467C13.8895 14.4905 14.3305 14.6624 14.8686 14.6624C15.4067 14.6624 15.8402 14.4905 16.1691 14.1467C16.5129 13.788 16.6848 13.3171 16.6848 12.7342V0.22296ZM25.091 0.22296C26.6007 0.22296 27.7442 0.596652 28.5215 1.34404C29.2988 2.09142 29.6874 3.29471 29.6874 4.9539V5.7835C29.6874 8.93746 28.1553 10.5144 25.091 10.5144H23.5215V17.0391H20.7413V0.22296H25.091ZM26.8848 5.89561V4.90906C26.8848 3.50398 26.3242 2.80144 25.2031 2.80144H23.5215V7.91354H25.2031C26.3242 7.91354 26.8848 7.2409 26.8848 5.89561ZM33.7031 14.4606H38.4789V17.0391H30.9229V0.22296H38.4565V2.80144H33.7031V7.06152H37.6493V9.66242H33.7031V14.4606ZM49.2094 17.0391H46.2049L44.3664 10.6714H42.5054V17.0391H39.7251V0.22296H44.3215C47.2961 0.22296 48.7834 1.69531 48.7834 4.64V6.25435C48.7834 8.00323 48.193 9.25136 47.0121 9.99874L49.2094 17.0391ZM42.5054 2.80144V8.09291H44.3888C45.4501 8.09291 45.9807 7.48006 45.9807 6.25435V4.64C45.9807 3.41429 45.4501 2.80144 44.3888 2.80144H42.5054ZM58.717 5.62655H55.9368V4.10188C55.9368 3.62356 55.7798 3.25734 55.4659 3.00323C55.167 2.73417 54.7559 2.59964 54.2327 2.59964C53.2163 2.59964 52.7081 3.05555 52.7081 3.96735V4.79695C52.7081 5.45465 52.9996 5.97782 53.5825 6.36646C53.8067 6.53088 54.3224 6.81489 55.1296 7.21848C55.8321 7.59217 56.3628 7.89112 56.7215 8.11534C57.0803 8.33955 57.454 8.63851 57.8426 9.0122C58.2462 9.38589 58.5227 9.80442 58.6722 10.2678C58.8366 10.7162 58.9188 11.2618 58.9188 11.9046V12.9808C58.9188 14.3859 58.5078 15.4546 57.6856 16.1871C56.8785 16.9046 55.7948 17.2633 54.4345 17.2633C53.0444 17.2633 51.9158 16.9046 51.0489 16.1871C50.1969 15.4546 49.7708 14.4158 49.7708 13.0705V11.5907H52.5511V13.0032C52.5511 13.5413 52.7155 13.9599 53.0444 14.2588C53.3879 14.5428 53.8587 14.6774 54.457 14.6624C55.578 14.6624 56.1386 14.1691 56.1386 13.1826V12.1961C56.1386 11.927 56.1012 11.6878 56.0265 11.4786C55.9653 11.2974 55.8825 11.1242 55.7798 10.9629C55.6901 10.8134 55.5108 10.649 55.2417 10.4696C54.9726 10.2902 54.7484 10.1557 54.5691 10.066C54.4046 9.97632 54.0907 9.8119 53.6274 9.57274C52.9398 9.21399 52.4091 8.91504 52.0354 8.67587C51.6367 8.41794 51.2616 8.12532 50.9144 7.80143C50.5556 7.44269 50.3015 7.04658 50.152 6.61309C50.0025 6.17961 49.9278 5.66392 49.9278 5.06601V4.19157C49.9278 2.90607 50.3239 1.88963 51.1161 1.14224C51.9233 0.379911 52.9921 -0.00125504 54.3224 -0.00125504C55.6528 -0.00125504 56.714 0.372437 57.5063 1.11982C58.3134 1.85226 58.717 2.85375 58.717 4.12431V5.62655ZM61.2762 1.23193C62.1282 0.409806 63.2344 -0.00125504 64.5946 -0.00125504C65.9549 -0.00125504 67.061 0.409806 67.913 1.23193C68.765 2.05405 69.191 3.14523 69.191 4.50547V12.7566C69.191 13.9972 68.8323 15.0212 68.1148 15.8283C67.3973 16.6206 66.4481 17.0839 65.2673 17.2185L67.061 19.2588H64.2583V17.2633C62.9728 17.1886 61.9414 16.7476 61.1641 15.9404C60.3868 15.1183 59.9982 14.057 59.9982 12.7566V4.50547C59.9982 3.14523 60.4242 2.05405 61.2762 1.23193ZM66.4108 12.7566V4.50547C66.4108 3.92251 66.2389 3.45913 65.8951 3.11534C65.5662 2.75659 65.1327 2.57722 64.5946 2.57722C64.0565 2.57722 63.6155 2.75659 63.2717 3.11534C62.9429 3.45913 62.7785 3.92251 62.7785 4.50547V12.7566C62.7785 13.3396 62.9429 13.8104 63.2717 14.1691C63.6155 14.5129 64.0565 14.6848 64.5946 14.6848C65.1327 14.6848 65.5662 14.5129 65.8951 14.1691C66.2389 13.8104 66.4108 13.3396 66.4108 12.7566ZM76.7677 0.22296H79.548V12.7566C79.548 14.1019 79.122 15.1856 78.27 16.0077C77.4179 16.8298 76.3118 17.2409 74.9516 17.2409C73.5913 17.2409 72.4852 16.8298 71.6332 16.0077C70.7812 15.1856 70.3552 14.1019 70.3552 12.7566V0.22296H73.1354V12.7342C73.1354 13.3171 73.2998 13.788 73.6287 14.1467C73.9725 14.4905 74.4135 14.6624 74.9516 14.6624C75.4897 14.6624 75.9232 14.4905 76.252 14.1467C76.5958 13.788 76.7677 13.3171 76.7677 12.7342V0.22296ZM86.8623 17.0391L86.4812 14.4606H83.23L82.8265 17.0391H79.8892L83.1628 0.22296H86.7278L90.0013 17.0391H86.8623ZM83.5664 12.2185H86.1448L84.8668 3.60861L83.5664 12.2185ZM95.1152 0.22296C96.4755 0.22296 97.5816 0.634021 98.4336 1.45614C99.2857 2.27827 99.7117 3.36945 99.7117 4.72969V12.5324C99.7117 13.8926 99.2857 14.9838 98.4336 15.8059C97.5816 16.628 96.4755 17.0391 95.1152 17.0391H90.743V0.22296H95.1152ZM96.9314 4.72969C96.9314 4.14673 96.7595 3.68335 96.4157 3.33955C96.0868 2.98081 95.6534 2.80144 95.1152 2.80144H93.5233V14.4606H95.1152C95.6534 14.4606 96.0868 14.2887 96.4157 13.9449C96.7595 13.5862 96.9314 13.1153 96.9314 12.5324V4.72969Z" fill="white"/>
</g>
</g>
<defs>
<clipPath id="clip0_0_98">
<rect width="100" height="19.28" fill="white"/>
</clipPath>
<clipPath id="clip1_0_98">
<rect width="100" height="19.2825" fill="white" transform="translate(0 -0.00125504)"/>
</clipPath>
</defs>
</svg>
